<?xml version="1.0" encoding="UTF-8"?>
<svg version="1.1" xmlns="http://www.w3.org/2000/svg" x="0" y="0" width="500" height="500" viewBox="0, 0, 500, 500">
  <g id="Layer_1">
    <path d="M108.818,273.511 C115.664,335.075 161.505,389.151 218.987,410.165 C237.97,417.105 257.497,420.004 277.615,420.512 C341.158,418.998 387.273,391.961 422.515,339.789 L491.483,339.789 C455.39,426.544 370.8,480.781 277.615,481.961 C177.997,481.487 85.291,414.092 56.34,318.21 L35.126,318.213 L2.528,273.511 L46.906,273.511 L46.906,273.511 L108.818,273.511 z" fill="#E8A84A"/>
    <path d="M277.615,18.039 C372.874,18.448 452.796,74.444 491.286,160.509 L422.427,160.509 C391.242,108.637 336.837,81.903 277.615,79.488 C218.415,79.801 162.591,110.856 131.788,161.583 C130.183,164.205 128.638,166.861 127.198,169.577 L59.939,169.577 C91.954,77.905 182.464,20.209 277.615,18.04 L277.615,18.039 z" fill="#E8A84A"/>
    <path d="M277.615,130.925 C343.378,130.925 396.69,184.237 396.69,250 C396.487,258.043 396.636,258.242 395.318,268.134 C395.076,269.947 394.585,271.719 394.219,273.511 C394.219,273.511 276.465,273.511 257.611,273.511 C241.169,273.511 241.169,234.532 257.611,234.483 C273.183,234.436 343.501,234.483 343.501,234.483 C337.168,203.583 308.118,183.042 277.615,182.27 C240.209,182.27 209.885,212.594 209.885,250 C209.885,287.406 240.209,317.73 277.615,317.73 L375.082,318.213 C353.415,350.711 315.922,368.106 277.615,369.075 C211.852,369.075 158.54,315.764 158.54,250 C158.774,240.728 158.489,245.905 159.647,234.483 L2.528,234.483 L29.31,209.056 L165.712,209.229 C184.552,161.336 226.168,132.226 277.615,130.925 L277.615,130.925 z" fill="#E8A84A"/>
  </g>
</svg>
