<svg xmlns="http://www.w3.org/2000/svg" version="1.1" width="3300" height="2000"><g id="Notes"><style>
    text {
      font-family: monospace;
      text-anchor: middle;
    }
    text.emphasis {
      font-weight:bold;
    }
    text.lanchor {
      text-anchor: start;
    }
  </style><rect height="2200" id="artboard" fill="white" width="3300" x="0" y="0"/><line id="" style="fill:none;stroke:black;stroke-width:0.5;" x1="263" x2="3036" y1="292" y2="292"/><text class="lanchor emphasis" transform="matrix(1 0 0 1 263 322)">Weight/Scale Variations</text><text transform="matrix(1 0 0 1 559.711 322)">Ultralight</text><text transform="matrix(1 0 0 1 856.422 322)">Thin</text><text transform="matrix(1 0 0 1 1153.13 322)">Light</text><text transform="matrix(1 0 0 1 1449.84 322)">Regular</text><text transform="matrix(1 0 0 1 1746.56 322)">Medium</text><text transform="matrix(1 0 0 1 2043.27 322)">Semibold</text><text transform="matrix(1 0 0 1 2339.98 322)">Bold</text><text transform="matrix(1 0 0 1 2636.69 322)">Heavy</text><text transform="matrix(1 0 0 1 2933.4 322)">Black</text><text id="template-version" style="text-anchor: end;" transform="matrix(1 0 0 1 3036 1933)">Template v.1.0</text><text class="lanchor" transform="matrix(1 0 0 1 263 726)">Small</text><text class="lanchor" transform="matrix(1 0 0 1 263 1156)">Medium</text><text class="lanchor" transform="matrix(1 0 0 1 263 1586)">Large</text></g><g id="Guides"><g id="H-reference" style="fill:#27AAE1;stroke:none;" transform="matrix(1 0 0 1 339 696)"><path d="M 54.9316 0 L 57.666 0 L 30.5664 -70.459 L 28.0762 -70.459 L 0.976562 0 L 3.66211 0 L 12.9395 -24.4629 L 45.7031 -24.4629 Z M 29.1992 -67.0898 L 29.4434 -67.0898 L 44.8242 -26.709 L 13.8184 -26.709 Z"/></g><line id="Baseline-S" style="fill:none;stroke:#27AAE1;opacity:1;stroke-width:0.577;" x1="263" x2="3036" y1="696" y2="696"/><line id="Capline-S" style="fill:none;stroke:#27AAE1;opacity:1;stroke-width:0.577;" x1="263" x2="3036" y1="625.541" y2="625.541"/><g id="H-reference" style="fill:#27AAE1;stroke:none;" transform="matrix(1 0 0 1 339 1126)"><path d="M 54.9316 0 L 57.666 0 L 30.5664 -70.459 L 28.0762 -70.459 L 0.976562 0 L 3.66211 0 L 12.9395 -24.4629 L 45.7031 -24.4629 Z M 29.1992 -67.0898 L 29.4434 -67.0898 L 44.8242 -26.709 L 13.8184 -26.709 Z"/></g><line id="Baseline-M" style="fill:none;stroke:#27AAE1;opacity:1;stroke-width:0.577;" x1="263" x2="3036" y1="1126" y2="1126"/><line id="Capline-M" style="fill:none;stroke:#27AAE1;opacity:1;stroke-width:0.577;" x1="263" x2="3036" y1="1055.54" y2="1055.54"/><g id="H-reference" style="fill:#27AAE1;stroke:none;" transform="matrix(1 0 0 1 339 1556)"><path d="M 54.9316 0 L 57.666 0 L 30.5664 -70.459 L 28.0762 -70.459 L 0.976562 0 L 3.66211 0 L 12.9395 -24.4629 L 45.7031 -24.4629 Z M 29.1992 -67.0898 L 29.4434 -67.0898 L 44.8242 -26.709 L 13.8184 -26.709 Z"/></g><line id="Baseline-L" style="fill:none;stroke:#27AAE1;opacity:1;stroke-width:0.577;" x1="263" x2="3036" y1="1556" y2="1556"/><line id="Capline-L" style="fill:none;stroke:#27AAE1;opacity:1;stroke-width:0.577;" x1="263" x2="3036" y1="1485.54" y2="1485.54"/><rect height="119.336" id="left-margin" style="fill:darkred;stroke:none;opacity:0.4;" width="12.4512" x="1394.06" y="1030.79"/><rect height="119.336" id="right-margin" style="fill:darkgreen;stroke:none;opacity:0.4;" width="12.4512" x="1502.5112" y="1030.79"/><rect x="1406.5112" y="1045" width="96" height="96" fill="none" stroke="blue" stroke-dasharray="5"/><rect x="1394.06" y="1030.79" width="120.9024" height="119.336" fill="none" stroke="blue"/></g><g id="Symbols"><g id="Bold-L" transform="matrix(1 0 0 1 2266 1556)"><path d="M75.142 -11.204  90.461 -26.361  105.78 -11.204  114.649 -20.072  99.33 -35.23  114.326 -50.387  105.457 -59.417  90.461 -44.099  75.142 -59.417  66.112 -50.387  81.593 -35.23  66.112 -20.072  75.142 -11.204 Z M57.889 20.401 Q54.095 20.401 50.899 18.774 Q47.703 17.146 45.634 14.274 L8.869 -35.23 L45.473 -84.734 Q47.541 -87.681 50.737 -89.352 Q53.933 -91.022 57.727 -91.022 H130.935 Q137.419 -91.022 141.837 -86.606 Q146.254 -82.188 146.254 -75.704 V5.244 Q146.254 11.662 141.837 16.031 Q137.419 20.401 130.935 20.401 H57.889 Z M27.735 -35.23  57.727 5.405 Q57.727 5.405 57.727 5.405 Q57.727 5.405 57.727 5.405 H131.096 Q131.096 5.405 131.096 5.405 Q131.096 5.405 131.096 5.405 V-75.865 Q131.096 -75.865 131.096 -75.865 Q131.096 -75.865 131.096 -75.865 H57.727 Q57.727 -75.865 57.727 -75.865 Q57.727 -75.865 57.727 -75.865 L27.735 -35.23 Z"/></g><g id="Semibold-L" transform="matrix(1 0 0 1 1970.27 1556)"><path d="M73.88 -10.854  90.392 -27.272  106.902 -10.854  114.929 -18.881  98.348 -35.23  114.607 -51.579  106.58 -59.698  90.392 -43.188  73.88 -59.698  65.763 -51.579  82.434 -35.23  65.763 -18.881  73.88 -10.854 Z M57.258 18.648 Q54.114 18.648 51.413 17.281 Q48.714 15.915 46.966 13.503 L10.622 -35.23 L46.804 -83.963 Q48.552 -86.417 51.252 -87.809 Q53.953 -89.2 57.097 -89.2 H131.565 Q136.966 -89.2 140.699 -85.467 Q144.432 -81.734 144.432 -76.334 V5.874 Q144.432 11.237 140.699 14.943 Q136.966 18.648 131.565 18.648 H57.258 Z M26.543 -35.23  57.166 5.966 Q57.166 5.966 57.166 5.966 Q57.166 5.966 57.166 5.966 H131.657 Q131.657 5.966 131.657 5.966 Q131.657 5.966 131.657 5.966 V-76.426 Q131.657 -76.426 131.657 -76.426 Q131.657 -76.426 131.657 -76.426 H57.166 Q57.166 -76.426 57.166 -76.426 Q57.166 -76.426 57.166 -76.426 L26.543 -35.23 Z"/></g><g id="Medium-L" transform="matrix(1 0 0 1 1674.31 1556)"><path d="M72.933 -10.591  90.339 -27.956  107.742 -10.591  115.139 -17.988  97.613 -35.23  114.816 -52.472  107.42 -59.908  90.339 -42.504  72.933 -59.908  65.5 -52.472  83.065 -35.23  65.5 -17.988  72.933 -10.591 Z M56.784 17.334 Q54.128 17.334 51.8 16.162 Q49.472 14.991 47.965 12.924 L11.936 -35.23 L47.804 -83.384 Q49.31 -85.469 51.639 -86.651 Q53.967 -87.833 56.623 -87.833 H132.04 Q136.627 -87.833 139.846 -84.614 Q143.064 -81.396 143.064 -76.808 V6.348 Q143.064 10.92 139.846 14.127 Q136.627 17.334 132.04 17.334 H56.784 Z M25.65 -35.23  56.745 6.387 Q56.745 6.387 56.745 6.387 Q56.745 6.387 56.745 6.387 H132.078 Q132.078 6.387 132.078 6.387 Q132.078 6.387 132.078 6.387 V-76.847 Q132.078 -76.847 132.078 -76.847 Q132.078 -76.847 132.078 -76.847 H56.745 Q56.745 -76.847 56.745 -76.847 Q56.745 -76.847 56.745 -76.847 L25.65 -35.23 Z"/></g><g id="Regular-L" transform="matrix(1 0 0 1 1378.56 1556)"><path d="M72.24 -10.397  90.3 -28.457  108.36 -10.397  115.294 -17.331  97.073 -35.23  114.971 -53.129  108.038 -60.062  90.3 -42.002  72.24 -60.062  65.306 -53.129  83.528 -35.23  65.306 -17.331  72.24 -10.397 Z M56.438 16.37 Q54.14 16.37 52.084 15.341 Q50.028 14.314 48.697 12.5 L12.9 -35.23 L48.536 -82.96 Q49.867 -84.774 51.922 -85.803 Q53.978 -86.83 56.276 -86.83 H132.386 Q136.377 -86.83 139.22 -83.989 Q142.061 -81.146 142.061 -77.155 V6.695 Q142.061 10.686 139.22 13.527 Q136.377 16.37 132.386 16.37 H56.438 Z M24.994 -35.23  56.438 6.695 Q56.438 6.695 56.438 6.695 Q56.438 6.695 56.438 6.695 H132.386 Q132.386 6.695 132.386 6.695 Q132.386 6.695 132.386 6.695 V-77.155 Q132.386 -77.155 132.386 -77.155 Q132.386 -77.155 132.386 -77.155 H56.438 Q56.438 -77.155 56.438 -77.155 Q56.438 -77.155 56.438 -77.155 L24.994 -35.23 Z"/></g><g id="Light-L" transform="matrix(1 0 0 1 1082.77 1556)"><path d="M71.495 -12.382  89.184 -30.07  106.872 -12.382  112.193 -17.641  94.344 -35.23  111.932 -52.819  106.673 -58.078  89.184 -40.39  71.495 -58.078  66.237 -52.819  84.024 -35.23  66.237 -17.641  71.495 -12.382 Z M57.429 13.145 Q55.178 13.145 53.232 12.203 Q51.284 11.262 50 9.46 L16.125 -35.23 L49.9 -79.92 Q51.184 -81.722 53.132 -82.663 Q55.08 -83.605 57.331 -83.605 H129.471 Q133.309 -83.605 136.042 -80.848 Q138.773 -78.092 138.773 -74.302 V3.842 Q138.773 7.632 136.042 10.388 Q133.309 13.145 129.471 13.145 H57.429 Z M25.303 -35.23  55.817 5.083 Q56.128 5.455 56.531 5.64 Q56.934 5.826 57.429 5.826 H129.471 Q130.34 5.826 130.898 5.268 Q131.456 4.71 131.456 3.842 V-74.302 Q131.456 -75.17 130.898 -75.728 Q130.34 -76.286 129.471 -76.286 H57.429 Q56.934 -76.286 56.531 -76.1 Q56.128 -75.915 55.817 -75.542 L25.303 -35.23 Z"/></g><g id="Thin-L" transform="matrix(1 0 0 1 787.282 1556)"><path d="M70.752 -14.367  88.067 -31.682  105.383 -14.367  109.092 -17.952  91.614 -35.23  108.894 -52.508  105.309 -56.093  88.067 -38.777  70.752 -56.093  67.167 -52.508  84.519 -35.23  67.167 -17.952  70.752 -14.367 Z M58.422 9.92 Q56.217 9.92 54.378 9.064 Q52.54 8.209 51.302 6.422 L19.35 -35.23 L51.265 -76.882 Q52.503 -78.669 54.341 -79.524 Q56.179 -80.38 58.385 -80.38 H126.557 Q130.24 -80.38 132.864 -77.708 Q135.487 -75.038 135.487 -71.45 V0.99 Q135.487 4.578 132.864 7.248 Q130.24 9.92 126.557 9.92 H58.422 Z M25.615 -35.23  55.197 3.47 Q55.817 4.215 56.623 4.586 Q57.429 4.958 58.422 4.958 H126.557 Q128.294 4.958 129.41 3.842 Q130.525 2.725 130.525 0.99 V-71.45 Q130.525 -73.185 129.41 -74.302 Q128.294 -75.418 126.557 -75.418 H58.422 Q57.429 -75.418 56.623 -75.046 Q55.817 -74.675 55.197 -73.93 L25.615 -35.23 Z"/></g><g id="Ultralight-L" transform="matrix(1 0 0 1 491.205 1556)"><path d="M70.305 -15.557  87.398 -32.65  104.49 -15.557  107.231 -18.137  89.978 -35.23  107.07 -52.322  104.49 -54.902  87.398 -37.81  70.305 -54.902  67.725 -52.322  84.817 -35.23  67.725 -18.137  70.305 -15.557 Z M59.017 7.985 Q56.841 7.985 55.067 7.182 Q53.293 6.377 52.084 4.599 L21.285 -35.23 L52.084 -75.059 Q53.293 -76.837 55.067 -77.642 Q56.841 -78.445 59.017 -78.445 H124.808 Q128.4 -78.445 130.958 -75.825 Q133.515 -73.204 133.515 -69.737 V-0.722 Q133.515 2.744 130.958 5.365 Q128.4 7.985 124.808 7.985 H59.017 Z M25.8 -35.23  54.825 2.503 Q55.631 3.47 56.679 3.954 Q57.727 4.438 59.017 4.438 H124.808 Q127.065 4.438 128.516 2.986 Q129.968 1.535 129.968 -0.722 V-69.737 Q129.968 -71.995 128.516 -73.446 Q127.065 -74.897 124.808 -74.897 H59.017 Q57.727 -74.897 56.679 -74.414 Q55.631 -73.93 54.825 -72.962 L25.8 -35.23 Z"/></g><g id="Bold-M" transform="matrix(1 0 0 1 2281.8 1126)"><path d="M60 -15.98  70.125 -26.105  80.25 -15.98  89.375 -25.105  79.25 -35.23  89.375 -45.355  80.25 -54.48  70.125 -44.355  60 -54.48  50.875 -45.355  61 -35.23  50.875 -25.105  60 -15.98 Z M46.5 9.02 Q42.715 9.02 39.329 7.326 Q35.941 5.634 33.75 2.645 L5.75 -35.23 L33.75 -73.105 Q35.941 -76.094 39.329 -77.786 Q42.715 -79.48 46.5 -79.48 H98.5 Q105.125 -79.48 109.688 -74.917 Q114.25 -70.355 114.25 -63.73 V-6.73 Q114.25 -0.105 109.688 4.458 Q105.125 9.02 98.5 9.02 H46.5 Z M25.25 -35.23  46.25 -6.605 Q46.25 -6.605 46.25 -6.605 Q46.25 -6.605 46.25 -6.605 H98.625 Q98.625 -6.605 98.625 -6.605 Q98.625 -6.605 98.625 -6.605 V-63.855 Q98.625 -63.855 98.625 -63.855 Q98.625 -63.855 98.625 -63.855 H46.25 Q46.25 -63.855 46.25 -63.855 Q46.25 -63.855 46.25 -63.855 L25.25 -35.23 Z"/></g><g id="Semibold-M" transform="matrix(1 0 0 1 1985.97 1126)"><path d="M58.696 -15.654  70.071 -27.029  81.445 -15.654  89.646 -23.855  78.271 -35.23  89.646 -46.605  81.445 -54.806  70.071 -43.431  58.696 -54.806  50.495 -46.605  61.87 -35.23  50.495 -23.855  58.696 -15.654 Z M45.847 7.173 Q42.676 7.173 39.837 5.754 Q37 4.334 35.163 1.83 L7.598 -35.23 L35.163 -72.29 Q37 -74.794 39.837 -76.214 Q42.676 -77.632 45.847 -77.632 H99.153 Q104.69 -77.632 108.546 -73.776 Q112.403 -69.92 112.403 -64.382 V-6.077 Q112.403 -0.54 108.546 3.316 Q104.69 7.173 99.153 7.173 H45.847 Z M24.055 -35.23  45.706 -6.007 Q45.706 -6.007 45.706 -6.007 Q45.706 -6.007 45.706 -6.007 H99.222 Q99.222 -6.007 99.222 -6.007 Q99.222 -6.007 99.222 -6.007 V-64.452 Q99.222 -64.452 99.222 -64.452 Q99.222 -64.452 99.222 -64.452 H45.706 Q45.706 -64.452 45.706 -64.452 Q45.706 -64.452 45.706 -64.452 L24.055 -35.23 Z"/></g><g id="Medium-M" transform="matrix(1 0 0 1 1689.91 1126)"><path d="M57.718 -15.409  70.03 -27.721  82.343 -15.409  89.85 -22.917  77.537 -35.23  89.85 -47.542  82.343 -55.051  70.03 -42.739  57.718 -55.051  50.209 -47.542  62.521 -35.23  50.209 -22.917  57.718 -15.409 Z M45.359 5.786 Q42.646 5.786 40.22 4.573 Q37.792 3.36 36.222 1.219 L8.984 -35.23 L36.222 -71.679 Q37.792 -73.82 40.22 -75.032 Q42.646 -76.246 45.359 -76.246 H99.641 Q104.364 -76.246 107.69 -72.92 Q111.016 -69.594 111.016 -64.871 V-5.589 Q111.016 -0.866 107.69 2.46 Q104.364 5.786 99.641 5.786 H45.359 Z M23.157 -35.23  45.299 -5.559 Q45.299 -5.559 45.299 -5.559 Q45.299 -5.559 45.299 -5.559 H99.671 Q99.671 -5.559 99.671 -5.559 Q99.671 -5.559 99.671 -5.559 V-64.901 Q99.671 -64.901 99.671 -64.901 Q99.671 -64.901 99.671 -64.901 H45.299 Q45.299 -64.901 45.299 -64.901 Q45.299 -64.901 45.299 -64.901 L23.157 -35.23 Z"/></g><g id="Regular-M" transform="matrix(1 0 0 1 1394.06 1126)"><path d="M57 -15.23  70 -28.23  83 -15.23  90 -22.23  77 -35.23  90 -48.23  83 -55.23  70 -42.23  57 -55.23  50 -48.23  63 -35.23  50 -22.23  57 -15.23 Z M45 4.77 Q42.625 4.77 40.5 3.708 Q38.375 2.645 37 0.77 L10 -35.23 L37 -71.23 Q38.375 -73.105 40.5 -74.167 Q42.625 -75.23 45 -75.23 H100 Q104.125 -75.23 107.062 -72.292 Q110 -69.355 110 -65.23 V-5.23 Q110 -1.105 107.062 1.833 Q104.125 4.77 100 4.77 H45 Z M22.5 -35.23  45 -5.23 Q45 -5.23 45 -5.23 Q45 -5.23 45 -5.23 H100 Q100 -5.23 100 -5.23 Q100 -5.23 100 -5.23 V-65.23 Q100 -65.23 100 -65.23 Q100 -65.23 100 -65.23 H45 Q45 -65.23 45 -65.23 Q45 -65.23 45 -65.23 L22.5 -35.23 Z"/></g><g id="Light-M" transform="matrix(1 0 0 1 1098.18 1126)"><path d="M56.135 -16.961  69.135 -29.961  82.135 -16.961  87.404 -22.23  74.404 -35.23  87.404 -48.23  82.135 -53.499  69.135 -40.499  56.135 -53.499  50.865 -48.23  63.865 -35.23  50.865 -22.23  56.135 -16.961 Z M45.432 2.27 Q43.286 2.27 41.365 1.323 Q39.445 0.375 38.203 -1.297 L12.5 -35.23 L38.203 -69.162 Q39.445 -70.835 41.365 -71.782 Q43.286 -72.73 45.432 -72.73 H98.461 Q102.19 -72.73 104.845 -70.075 Q107.5 -67.42 107.5 -63.691 V-6.769 Q107.5 -3.04 104.845 -0.385 Q102.19 2.27 98.461 2.27 H45.432 Z M21.875 -35.23  44.182 -5.807 Q44.422 -5.519 44.735 -5.374 Q45.047 -5.23 45.432 -5.23 H98.461 Q99.135 -5.23 99.567 -5.662 Q100 -6.095 100 -6.769 V-63.691 Q100 -64.365 99.567 -64.797 Q99.135 -65.23 98.461 -65.23 H45.432 Q45.047 -65.23 44.735 -65.086 Q44.422 -64.941 44.182 -64.652 L21.875 -35.23 Z"/></g><g id="Thin-M" transform="matrix(1 0 0 1 802.565 1126)"><path d="M55.269 -18.691  68.269 -31.691  81.269 -18.691  84.808 -22.23  71.808 -35.23  84.808 -48.23  81.269 -51.769  68.269 -38.769  55.269 -51.769  51.731 -48.23  64.731 -35.23  51.731 -22.23  55.269 -18.691 Z M45.865 -0.23 Q43.947 -0.23 42.231 -1.062 Q40.515 -1.895 39.404 -3.365 L15 -35.23 L39.404 -67.095 Q40.515 -68.565 42.231 -69.397 Q43.947 -70.23 45.865 -70.23 H96.922 Q100.255 -70.23 102.627 -67.857 Q105 -65.485 105 -62.152 V-8.307 Q105 -4.975 102.627 -2.602 Q100.255 -0.23 96.922 -0.23 H45.865 Z M21.25 -35.23  43.365 -6.384 Q43.846 -5.807 44.471 -5.519 Q45.096 -5.23 45.865 -5.23 H96.922 Q98.269 -5.23 99.135 -6.095 Q100 -6.961 100 -8.307 V-62.152 Q100 -63.499 99.135 -64.365 Q98.269 -65.23 96.922 -65.23 H45.865 Q45.096 -65.23 44.471 -64.941 Q43.846 -64.652 43.365 -64.076 L21.25 -35.23 Z"/></g><g id="Ultralight-M" transform="matrix(1 0 0 1 506.415 1126)"><path d="M54.75 -19.73  67.75 -32.73  80.75 -19.73  83.25 -22.23  70.25 -35.23  83.25 -48.23  80.75 -50.73  67.75 -37.73  54.75 -50.73  52.25 -48.23  65.25 -35.23  52.25 -22.23  54.75 -19.73 Z M46.125 -1.73 Q44.344 -1.73 42.75 -2.494 Q41.156 -3.257 40.125 -4.605 L16.5 -35.23 L40.125 -65.855 Q41.156 -67.202 42.75 -67.966 Q44.344 -68.73 46.125 -68.73 H96 Q99.094 -68.73 101.297 -66.527 Q103.5 -64.324 103.5 -61.23 V-9.23 Q103.5 -6.136 101.297 -3.934 Q99.094 -1.73 96 -1.73 H46.125 Z M20.875 -35.23  42.875 -6.73 Q43.5 -5.98 44.312 -5.605 Q45.125 -5.23 46.125 -5.23 H96 Q97.75 -5.23 98.875 -6.355 Q100 -7.48 100 -9.23 V-61.23 Q100 -62.98 98.875 -64.105 Q97.75 -65.23 96 -65.23 H46.125 Q45.125 -65.23 44.312 -64.855 Q43.5 -64.48 42.875 -63.73 L20.875 -35.23 Z"/></g><g id="Bold-S" transform="matrix(1 0 0 1 2294.23 696)"><path d="M49.707 -21.62  56.907 -28.819  64.106 -21.62  70.517 -28.03  63.317 -35.23  70.517 -42.43  64.106 -48.84  56.907 -41.641  49.707 -48.84  43.296 -42.43  50.496 -35.23  43.296 -28.03  49.707 -21.62 Z M37.872 -3.473 Q35.098 -3.473 32.615 -4.71 Q30.133 -5.947 28.404 -8.207 L8.482 -35.23 L28.404 -62.253 Q30.133 -64.513 32.615 -65.75 Q35.098 -66.987 37.872 -66.987 H76.928 Q81.829 -66.987 85.197 -63.618 Q88.565 -60.249 88.565 -55.346 V-15.083 Q88.565 -10.179 85.197 -6.826 Q81.829 -3.473 76.928 -3.473 H37.872 Z M22.881 -35.23  37.675 -15.012 Q37.675 -15.012 37.675 -15.012 Q37.675 -15.012 37.675 -15.012 H77.026 Q77.026 -15.012 77.026 -15.012 Q77.026 -15.012 77.026 -15.012 V-55.448 Q77.026 -55.448 77.026 -55.448 Q77.026 -55.448 77.026 -55.448 H37.675 Q37.675 -55.448 37.675 -55.448 Q37.675 -55.448 37.675 -55.448 L22.881 -35.23 Z"/></g><g id="Semibold-S" transform="matrix(1 0 0 1 1998.1 696)"><path d="M48.678 -21.362  56.864 -29.548  65.049 -21.362  70.731 -27.044  62.545 -35.23  70.731 -43.416  65.049 -49.098  56.864 -40.912  48.678 -49.098  42.997 -43.416  51.182 -35.23  42.997 -27.044  48.678 -21.362 Z M37.357 -4.93 Q35.067 -4.93 33.018 -5.951 Q30.968 -6.973 29.518 -8.85 L9.939 -35.23 L29.518 -61.61 Q30.968 -63.487 33.018 -64.509 Q35.067 -65.53 37.357 -65.53 H77.442 Q81.486 -65.53 84.297 -62.718 Q87.108 -59.906 87.108 -55.86 V-14.568 Q87.108 -10.522 84.297 -7.726 Q81.486 -4.93 77.442 -4.93 H37.357 Z M21.938 -35.23  37.246 -14.54 Q37.246 -14.54 37.246 -14.54 Q37.246 -14.54 37.246 -14.54 H77.498 Q77.498 -14.54 77.498 -14.54 Q77.498 -14.54 77.498 -14.54 V-55.92 Q77.498 -55.92 77.498 -55.92 Q77.498 -55.92 77.498 -55.92 H37.246 Q37.246 -55.92 37.246 -55.92 Q37.246 -55.92 37.246 -55.92 L21.938 -35.23 Z"/></g><g id="Medium-S" transform="matrix(1 0 0 1 1701.85 696)"><path d="M47.906 -21.169  56.832 -30.095  65.757 -21.169  70.892 -26.304  61.966 -35.23  70.892 -44.156  65.757 -49.291  56.832 -40.365  47.906 -49.291  42.771 -44.156  51.696 -35.23  42.771 -26.304  47.906 -21.169 Z M36.972 -6.024 Q35.043 -6.024 33.318 -6.883 Q31.594 -7.741 30.355 -9.332 L11.033 -35.23 L30.355 -61.128 Q31.594 -62.719 33.318 -63.577 Q35.043 -64.436 36.972 -64.436 H77.828 Q81.229 -64.436 83.621 -62.042 Q86.014 -59.649 86.014 -56.246 V-14.182 Q86.014 -10.78 83.621 -8.402 Q81.229 -6.024 77.828 -6.024 H36.972 Z M21.23 -35.23  36.924 -14.186 Q36.924 -14.186 36.924 -14.186 Q36.924 -14.186 36.924 -14.186 H77.852 Q77.852 -14.186 77.852 -14.186 Q77.852 -14.186 77.852 -14.186 V-56.274 Q77.852 -56.274 77.852 -56.274 Q77.852 -56.274 77.852 -56.274 H36.924 Q36.924 -56.274 36.924 -56.274 Q36.924 -56.274 36.924 -56.274 L21.23 -35.23 Z"/></g><g id="Regular-S" transform="matrix(1 0 0 1 1405.73 696)"><path d="M47.34 -21.028  56.808 -30.496  66.276 -21.028  71.01 -25.762  61.542 -35.23  71.01 -44.698  66.276 -49.432  56.808 -39.964  47.34 -49.432  42.606 -44.698  52.074 -35.23  42.606 -25.762  47.34 -21.028 Z M36.689 -6.826 Q35.027 -6.826 33.54 -7.566 Q32.053 -8.305 30.968 -9.686 L11.835 -35.23 L30.968 -60.774 Q32.053 -62.155 33.54 -62.894 Q35.027 -63.634 36.689 -63.634 H78.111 Q81.04 -63.634 83.126 -61.547 Q85.212 -59.46 85.212 -56.529 V-13.899 Q85.212 -10.968 83.126 -8.897 Q81.04 -6.826 78.111 -6.826 H36.689 Z M20.711 -35.23  36.689 -13.927 Q36.689 -13.927 36.689 -13.927 Q36.689 -13.927 36.689 -13.927 H78.111 Q78.111 -13.927 78.111 -13.927 Q78.111 -13.927 78.111 -13.927 V-56.533 Q78.111 -56.533 78.111 -56.533 Q78.111 -56.533 78.111 -56.533 H36.689 Q36.689 -56.533 36.689 -56.533 Q36.689 -56.533 36.689 -56.533 L20.711 -35.23 Z"/></g><g id="Light-S" transform="matrix(1 0 0 1 1109.75 696)"><path d="M46.658 -22.394  56.126 -31.862  65.594 -22.394  68.962 -25.762  59.494 -35.23  68.962 -44.698  65.594 -48.066  56.126 -38.598  46.658 -48.066  43.288 -44.698  52.756 -35.23  43.288 -25.762  46.658 -22.394 Z M37.03 -8.798 Q35.548 -8.798 34.223 -9.447 Q32.897 -10.096 31.917 -11.317 L13.808 -35.23 L31.917 -59.143 Q32.897 -60.364 34.223 -61.013 Q35.548 -61.661 37.03 -61.661 H76.897 Q79.513 -61.661 81.376 -59.797 Q83.24 -57.932 83.24 -55.315 V-15.113 Q83.24 -12.495 81.376 -10.647 Q79.513 -8.798 76.897 -8.798 H37.03 Z M20.218 -35.23  36.043 -14.383 Q36.233 -14.155 36.479 -14.04 Q36.726 -13.927 37.03 -13.927 H76.897 Q77.429 -13.927 77.77 -14.268 Q78.111 -14.609 78.111 -15.141 V-55.319 Q78.111 -55.851 77.77 -56.192 Q77.429 -56.533 76.897 -56.533 H37.03 Q36.726 -56.533 36.479 -56.42 Q36.233 -56.305 36.043 -56.077 L20.218 -35.23 Z"/></g><g id="Thin-S" transform="matrix(1 0 0 1 814.015 696)"><path d="M45.974 -23.759  55.442 -33.227  64.91 -23.759  66.913 -25.762  57.445 -35.23  66.913 -44.698  64.91 -46.701  55.442 -37.233  45.974 -46.701  43.972 -44.698  53.44 -35.23  43.972 -25.762  45.974 -23.759 Z M37.371 -10.771 Q36.07 -10.771 34.905 -11.329 Q33.742 -11.887 32.865 -12.949 L15.78 -35.23 L32.865 -57.511 Q33.742 -58.573 34.905 -59.131 Q36.07 -59.689 37.371 -59.689 H75.683 Q77.987 -59.689 79.627 -58.048 Q81.267 -56.406 81.267 -54.101 V-16.327 Q81.267 -14.022 79.627 -12.396 Q77.987 -10.771 75.683 -10.771 H37.371 Z M19.725 -35.23  35.398 -14.837 Q35.778 -14.383 36.271 -14.155 Q36.764 -13.927 37.371 -13.927 H75.683 Q76.745 -13.927 77.429 -14.609 Q78.111 -15.293 78.111 -16.355 V-54.105 Q78.111 -55.167 77.429 -55.851 Q76.745 -56.533 75.683 -56.533 H37.371 Q36.764 -56.533 36.271 -56.305 Q35.778 -56.077 35.398 -55.623 L19.725 -35.23 Z"/></g><g id="Ultralight-S" transform="matrix(1 0 0 1 517.792 696)"><path d="M45.565 -24.578  55.033 -34.046  64.501 -24.578  65.684 -25.762  56.216 -35.23  65.684 -44.698  64.501 -45.881  55.033 -36.413  45.565 -45.881  44.381 -44.698  53.849 -35.23  44.381 -25.762  45.565 -24.578 Z M37.576 -11.954 Q36.383 -11.954 35.316 -12.458 Q34.248 -12.962 33.434 -13.927 L16.963 -35.23 L33.434 -56.533 Q34.248 -57.498 35.316 -58.002 Q36.383 -58.505 37.576 -58.505 H74.955 Q77.071 -58.505 78.577 -56.998 Q80.084 -55.491 80.084 -53.373 V-17.055 Q80.084 -14.938 78.577 -13.447 Q77.071 -11.954 74.955 -11.954 H37.576 Z M19.429 -35.23  35.012 -15.11 Q35.505 -14.519 36.146 -14.223 Q36.787 -13.927 37.576 -13.927 H74.955 Q76.336 -13.927 77.223 -14.815 Q78.111 -15.702 78.111 -17.083 V-53.377 Q78.111 -54.758 77.223 -55.645 Q76.336 -56.533 74.955 -56.533 H37.576 Q36.787 -56.533 36.146 -56.237 Q35.505 -55.941 35.012 -55.349 L19.429 -35.23 Z"/></g></g></svg>