<svg xmlns="http://www.w3.org/2000/svg" version="1.1" width="3300" height="2000"><g id="Notes"><style>
    text {
      font-family: monospace;
      text-anchor: middle;
    }
    text.emphasis {
      font-weight:bold;
    }
    text.lanchor {
      text-anchor: start;
    }
  </style><rect height="2200" id="artboard" fill="white" width="3300" x="0" y="0"/><line id="" style="fill:none;stroke:black;stroke-width:0.5;" x1="263" x2="3036" y1="292" y2="292"/><text class="lanchor emphasis" transform="matrix(1 0 0 1 263 322)">Weight/Scale Variations</text><text transform="matrix(1 0 0 1 559.711 322)">Ultralight</text><text transform="matrix(1 0 0 1 856.422 322)">Thin</text><text transform="matrix(1 0 0 1 1153.13 322)">Light</text><text transform="matrix(1 0 0 1 1449.84 322)">Regular</text><text transform="matrix(1 0 0 1 1746.56 322)">Medium</text><text transform="matrix(1 0 0 1 2043.27 322)">Semibold</text><text transform="matrix(1 0 0 1 2339.98 322)">Bold</text><text transform="matrix(1 0 0 1 2636.69 322)">Heavy</text><text transform="matrix(1 0 0 1 2933.4 322)">Black</text><text id="template-version" style="text-anchor: end;" transform="matrix(1 0 0 1 3036 1933)">Template v.1.0</text><text class="lanchor" transform="matrix(1 0 0 1 263 726)">Small</text><text class="lanchor" transform="matrix(1 0 0 1 263 1156)">Medium</text><text class="lanchor" transform="matrix(1 0 0 1 263 1586)">Large</text></g><g id="Guides"><g id="H-reference" style="fill:#27AAE1;stroke:none;" transform="matrix(1 0 0 1 339 696)"><path d="M 54.9316 0 L 57.666 0 L 30.5664 -70.459 L 28.0762 -70.459 L 0.976562 0 L 3.66211 0 L 12.9395 -24.4629 L 45.7031 -24.4629 Z M 29.1992 -67.0898 L 29.4434 -67.0898 L 44.8242 -26.709 L 13.8184 -26.709 Z"/></g><line id="Baseline-S" style="fill:none;stroke:#27AAE1;opacity:1;stroke-width:0.577;" x1="263" x2="3036" y1="696" y2="696"/><line id="Capline-S" style="fill:none;stroke:#27AAE1;opacity:1;stroke-width:0.577;" x1="263" x2="3036" y1="625.541" y2="625.541"/><g id="H-reference" style="fill:#27AAE1;stroke:none;" transform="matrix(1 0 0 1 339 1126)"><path d="M 54.9316 0 L 57.666 0 L 30.5664 -70.459 L 28.0762 -70.459 L 0.976562 0 L 3.66211 0 L 12.9395 -24.4629 L 45.7031 -24.4629 Z M 29.1992 -67.0898 L 29.4434 -67.0898 L 44.8242 -26.709 L 13.8184 -26.709 Z"/></g><line id="Baseline-M" style="fill:none;stroke:#27AAE1;opacity:1;stroke-width:0.577;" x1="263" x2="3036" y1="1126" y2="1126"/><line id="Capline-M" style="fill:none;stroke:#27AAE1;opacity:1;stroke-width:0.577;" x1="263" x2="3036" y1="1055.54" y2="1055.54"/><g id="H-reference" style="fill:#27AAE1;stroke:none;" transform="matrix(1 0 0 1 339 1556)"><path d="M 54.9316 0 L 57.666 0 L 30.5664 -70.459 L 28.0762 -70.459 L 0.976562 0 L 3.66211 0 L 12.9395 -24.4629 L 45.7031 -24.4629 Z M 29.1992 -67.0898 L 29.4434 -67.0898 L 44.8242 -26.709 L 13.8184 -26.709 Z"/></g><line id="Baseline-L" style="fill:none;stroke:#27AAE1;opacity:1;stroke-width:0.577;" x1="263" x2="3036" y1="1556" y2="1556"/><line id="Capline-L" style="fill:none;stroke:#27AAE1;opacity:1;stroke-width:0.577;" x1="263" x2="3036" y1="1485.54" y2="1485.54"/><rect height="119.336" id="left-margin" style="fill:darkred;stroke:none;opacity:0.4;" width="12.4512" x="1394.06" y="1030.79"/><rect height="119.336" id="right-margin" style="fill:darkgreen;stroke:none;opacity:0.4;" width="12.4512" x="1502.5112" y="1030.79"/><rect x="1406.5112" y="1045" width="96" height="96" fill="none" stroke="blue" stroke-dasharray="5"/><rect x="1394.06" y="1030.79" width="120.9024" height="119.336" fill="none" stroke="blue"/></g><g id="Symbols"><g id="Bold-L" transform="matrix(1 0 0 1 2266 1556)"><path d="M96.831 -19.024 Q104.812 -27.006 104.812 -38.455 Q104.812 -49.904 96.831 -57.886 Q88.849 -65.867 77.4 -65.867 Q65.951 -65.867 57.969 -57.886 Q49.988 -49.904 49.988 -38.455 Q49.988 -27.006 57.969 -19.024 Q65.951 -11.042 77.4 -11.042 Q88.849 -11.042 96.831 -19.024 Z M66.435 -27.461 Q61.92 -31.949 61.92 -38.426 Q61.92 -44.905 66.406 -49.42 Q70.894 -53.935 77.371 -53.935 Q83.85 -53.935 88.365 -49.449 Q92.88 -44.961 92.88 -38.484 Q92.88 -32.005 88.394 -27.49 Q83.906 -22.975 77.429 -22.975 Q70.95 -22.975 66.435 -27.461 Z M32.572 -0.884 Q12.578 -15.396 2.741 -38.455 Q12.578 -61.514 32.572 -76.026 Q52.568 -90.539 77.4 -90.539 Q102.233 -90.539 122.228 -76.026 Q142.222 -61.514 152.059 -38.455 Q142.222 -15.396 122.228 -0.884 Q102.233 13.629 77.4 13.629 Q52.568 13.629 32.572 -0.884 Z M113.036 -10.317 Q129.322 -20.879 137.869 -38.455 Q129.322 -56.031 113.022 -66.593 Q96.721 -77.155 77.385 -77.155 Q58.05 -77.155 41.764 -66.593 Q25.477 -56.031 16.77 -38.455 Q25.477 -20.879 41.778 -10.317 Q58.079 0.245 77.415 0.245 Q96.75 0.245 113.036 -10.317 Z"/></g><g id="Semibold-L" transform="matrix(1 0 0 1 1970.27 1556)"><path d="M96.831 -19.024 Q104.812 -27.006 104.812 -38.455 Q104.812 -49.904 96.831 -57.886 Q88.849 -65.867 77.4 -65.867 Q65.951 -65.867 57.969 -57.886 Q49.988 -49.904 49.988 -38.455 Q49.988 -27.006 57.969 -19.024 Q65.951 -11.042 77.4 -11.042 Q88.849 -11.042 96.831 -19.024 Z M65.629 -26.668 Q60.798 -31.483 60.798 -38.439 Q60.798 -45.395 65.613 -50.226 Q70.428 -55.057 77.384 -55.057 Q84.34 -55.057 89.171 -50.242 Q94.002 -45.427 94.002 -38.471 Q94.002 -31.515 89.187 -26.684 Q84.372 -21.853 77.416 -21.853 Q70.46 -21.853 65.629 -26.668 Z M33.555 -2.006 Q13.98 -16.027 4.354 -38.455 Q13.98 -60.883 33.555 -74.904 Q53.129 -88.926 77.4 -88.926 Q101.671 -88.926 121.245 -74.904 Q140.82 -60.883 150.446 -38.455 Q140.82 -16.027 121.245 -2.006 Q101.671 12.016 77.4 12.016 Q53.129 12.016 33.555 -2.006 Z M113.141 -10.317 Q129.463 -20.879 138.009 -38.455 Q129.463 -56.031 113.133 -66.593 Q96.803 -77.155 77.392 -77.155 Q57.981 -77.155 41.659 -66.593 Q25.337 -56.031 16.63 -38.455 Q25.337 -20.879 41.667 -10.317 Q57.997 0.245 77.408 0.245 Q96.819 0.245 113.141 -10.317 Z"/></g><g id="Medium-L" transform="matrix(1 0 0 1 1674.31 1556)"><path d="M96.831 -19.024 Q104.812 -27.006 104.812 -38.455 Q104.812 -49.904 96.831 -57.886 Q88.849 -65.867 77.4 -65.867 Q65.951 -65.867 57.969 -57.886 Q49.988 -49.904 49.988 -38.455 Q49.988 -27.006 57.969 -19.024 Q65.951 -11.042 77.4 -11.042 Q88.849 -11.042 96.831 -19.024 Z M65.024 -26.073 Q59.958 -31.133 59.958 -38.449 Q59.958 -45.764 65.018 -50.831 Q70.078 -55.897 77.394 -55.897 Q84.709 -55.897 89.776 -50.837 Q94.842 -45.777 94.842 -38.461 Q94.842 -31.146 89.782 -26.079 Q84.722 -21.013 77.406 -21.013 Q70.091 -21.013 65.024 -26.073 Z M34.29 -2.846 Q15.032 -16.501 5.563 -38.455 Q15.032 -60.409 34.29 -74.064 Q53.55 -87.717 77.4 -87.717 Q101.25 -87.717 120.51 -74.064 Q139.768 -60.409 149.237 -38.455 Q139.768 -16.501 120.51 -2.846 Q101.25 10.807 77.4 10.807 Q53.55 10.807 34.29 -2.846 Z M113.22 -10.317 Q129.568 -20.879 138.114 -38.455 Q129.568 -56.031 113.217 -66.593 Q96.866 -77.155 77.397 -77.155 Q57.927 -77.155 41.58 -66.593 Q25.232 -56.031 16.525 -38.455 Q25.232 -20.879 41.583 -10.317 Q57.934 0.245 77.403 0.245 Q96.873 0.245 113.22 -10.317 Z"/></g><g id="Regular-L" transform="matrix(1 0 0 1 1378.56 1556)"><path d="M96.831 -19.024 Q104.812 -27.006 104.812 -38.455 Q104.812 -49.904 96.831 -57.886 Q88.849 -65.867 77.4 -65.867 Q65.951 -65.867 57.969 -57.886 Q49.988 -49.904 49.988 -38.455 Q49.988 -27.006 57.969 -19.024 Q65.951 -11.042 77.4 -11.042 Q88.849 -11.042 96.831 -19.024 Z M64.581 -25.636 Q59.34 -30.876 59.34 -38.455 Q59.34 -46.034 64.581 -51.274 Q69.821 -56.515 77.4 -56.515 Q84.979 -56.515 90.219 -51.274 Q95.46 -46.034 95.46 -38.455 Q95.46 -30.876 90.219 -25.636 Q84.979 -20.395 77.4 -20.395 Q69.821 -20.395 64.581 -25.636 Z M34.83 -3.464 Q15.803 -16.847 6.45 -38.455 Q15.803 -60.062 34.83 -73.446 Q53.858 -86.83 77.4 -86.83 Q100.943 -86.83 119.97 -73.446 Q138.998 -60.062 148.35 -38.455 Q138.998 -16.847 119.97 -3.464 Q100.943 9.92 77.4 9.92 Q53.858 9.92 34.83 -3.464 Z M113.278 -10.317 Q129.645 -20.879 138.191 -38.455 Q129.645 -56.031 113.278 -66.593 Q96.911 -77.155 77.4 -77.155 Q57.889 -77.155 41.522 -66.593 Q25.155 -56.031 16.448 -38.455 Q25.155 -20.879 41.522 -10.317 Q57.889 0.245 77.4 0.245 Q96.911 0.245 113.278 -10.317 Z"/></g><g id="Light-L" transform="matrix(1 0 0 1 1082.77 1556)"><path d="M95.187 -20.682 Q102.518 -28.029 102.518 -38.47 Q102.518 -48.912 95.173 -56.242 Q87.826 -63.573 77.385 -63.573 Q66.943 -63.573 59.613 -56.228 Q52.282 -48.881 52.282 -38.44 Q52.282 -27.998 59.627 -20.668 Q66.974 -13.337 77.415 -13.337 Q87.857 -13.337 95.187 -20.682 Z M64.705 -25.76 Q59.525 -30.938 59.525 -38.455 Q59.525 -45.972 64.705 -51.15 Q69.883 -56.33 77.4 -56.33 Q84.917 -56.33 90.095 -51.15 Q95.275 -45.972 95.275 -38.455 Q95.275 -30.938 90.095 -25.76 Q84.917 -20.58 77.4 -20.58 Q69.883 -20.58 64.705 -25.76 Z M37.125 -5.728 Q19.027 -18.15 9.923 -38.455 Q19.027 -58.76 37.117 -71.182 Q55.204 -83.605 77.392 -83.605 Q99.578 -83.605 117.675 -71.182 Q135.773 -58.76 144.877 -38.455 Q135.773 -18.15 117.683 -5.728 Q99.596 6.695 77.408 6.695 Q55.222 6.695 37.125 -5.728 Z M112.657 -10.905 Q128.715 -21.188 137.137 -38.455 Q128.715 -55.722 112.657 -66.005 Q96.602 -76.286 77.4 -76.286 Q58.198 -76.286 42.143 -66.005 Q26.085 -55.722 17.563 -38.455 Q26.085 -21.188 42.143 -10.905 Q58.198 -0.624 77.4 -0.624 Q96.602 -0.624 112.657 -10.905 Z"/></g><g id="Thin-L" transform="matrix(1 0 0 1 787.282 1556)"><path d="M93.544 -22.341 Q100.223 -29.049 100.223 -38.484 Q100.223 -47.919 93.514 -54.599 Q86.806 -61.278 77.371 -61.278 Q67.936 -61.278 61.256 -54.569 Q54.577 -47.861 54.577 -38.426 Q54.577 -28.991 61.286 -22.311 Q67.994 -15.632 77.429 -15.632 Q86.864 -15.632 93.544 -22.341 Z M64.829 -25.884 Q59.712 -31 59.712 -38.455 Q59.712 -45.91 64.829 -51.026 Q69.945 -56.143 77.4 -56.143 Q84.855 -56.143 89.971 -51.026 Q95.088 -45.91 95.088 -38.455 Q95.088 -31 89.971 -25.884 Q84.855 -20.767 77.4 -20.767 Q69.945 -20.767 64.829 -25.884 Z M39.419 -7.992 Q22.253 -19.452 13.397 -38.455 Q22.253 -57.458 39.401 -68.918 Q56.55 -80.38 77.382 -80.38 Q98.214 -80.38 115.381 -68.918 Q132.548 -57.458 141.403 -38.455 Q132.548 -19.452 115.399 -7.992 Q98.25 3.47 77.418 3.47 Q56.586 3.47 39.419 -7.992 Z M112.038 -11.496 Q127.784 -21.5 136.082 -38.455 Q127.784 -55.41 112.038 -65.414 Q96.29 -75.418 77.4 -75.418 Q58.51 -75.418 42.762 -65.414 Q27.016 -55.41 18.681 -38.455 Q27.016 -21.5 42.762 -11.496 Q58.51 -1.492 77.4 -1.492 Q96.29 -1.492 112.038 -11.496 Z"/></g><g id="Ultralight-L" transform="matrix(1 0 0 1 491.205 1556)"><path d="M92.558 -23.336 Q98.846 -29.662 98.846 -38.494 Q98.846 -47.324 92.519 -53.612 Q86.193 -59.901 77.361 -59.901 Q68.531 -59.901 62.242 -53.574 Q55.954 -47.248 55.954 -38.416 Q55.954 -29.586 62.281 -23.297 Q68.607 -17.009 77.439 -17.009 Q86.269 -17.009 92.558 -23.336 Z M64.903 -25.958 Q59.824 -31.037 59.824 -38.455 Q59.824 -45.872 64.903 -50.952 Q69.983 -56.031 77.4 -56.031 Q84.817 -56.031 89.897 -50.952 Q94.976 -45.872 94.976 -38.455 Q94.976 -31.037 89.897 -25.958 Q84.817 -20.879 77.4 -20.879 Q69.983 -20.879 64.903 -25.958 Z M40.796 -9.349 Q24.188 -20.234 15.48 -38.455 Q24.188 -56.676 40.774 -67.561 Q57.358 -78.445 77.377 -78.445 Q97.395 -78.445 114.004 -67.561 Q130.613 -56.676 139.32 -38.455 Q130.613 -20.234 114.026 -9.349 Q97.442 1.535 77.423 1.535 Q57.405 1.535 40.796 -9.349 Z M111.666 -11.849 Q127.226 -21.685 135.45 -38.455 Q127.226 -55.225 111.666 -65.061 Q96.105 -74.897 77.4 -74.897 Q58.695 -74.897 43.134 -65.061 Q27.574 -55.225 19.35 -38.455 Q27.574 -21.685 43.134 -11.849 Q58.695 -2.012 77.4 -2.012 Q96.105 -2.012 111.666 -11.849 Z"/></g><g id="Bold-M" transform="matrix(1 0 0 1 2281.8 1126)"><path d="M75.938 -21.792 Q82.5 -28.355 82.5 -37.73 Q82.5 -47.105 75.938 -53.667 Q69.375 -60.23 60 -60.23 Q50.625 -60.23 44.062 -53.667 Q37.5 -47.105 37.5 -37.73 Q37.5 -28.355 44.062 -21.792 Q50.625 -15.23 60 -15.23 Q69.375 -15.23 75.938 -21.792 Z M52.312 -30.02 Q49.125 -33.186 49.125 -37.707 Q49.125 -42.23 52.29 -45.417 Q55.456 -48.605 59.977 -48.605 Q64.5 -48.605 67.688 -45.44 Q70.875 -42.274 70.875 -37.752 Q70.875 -33.23 67.71 -30.042 Q64.544 -26.855 60.023 -26.855 Q55.5 -26.855 52.312 -30.02 Z M24.312 -7.792 Q8.375 -19.23 1.125 -37.73 Q8.375 -56.23 24.312 -67.667 Q40.25 -79.105 60 -79.105 Q79.75 -79.105 95.688 -67.667 Q111.625 -56.23 118.875 -37.73 Q111.625 -19.23 95.688 -7.792 Q79.75 3.645 60 3.645 Q40.25 3.645 24.312 -7.792 Z M85.688 -17.73 Q97.375 -25.23 103.625 -37.73 Q97.375 -50.23 85.676 -57.73 Q73.978 -65.23 59.989 -65.23 Q46 -65.23 34.312 -57.73 Q22.625 -50.23 16.375 -37.73 Q22.625 -25.23 34.324 -17.73 Q46.023 -10.23 60.011 -10.23 Q74 -10.23 85.688 -17.73 Z"/></g><g id="Semibold-M" transform="matrix(1 0 0 1 1985.97 1126)"><path d="M75.938 -21.792 Q82.5 -28.355 82.5 -37.73 Q82.5 -47.105 75.938 -53.667 Q69.375 -60.23 60 -60.23 Q50.625 -60.23 44.062 -53.667 Q37.5 -47.105 37.5 -37.73 Q37.5 -28.355 44.062 -21.792 Q50.625 -15.23 60 -15.23 Q69.375 -15.23 75.938 -21.792 Z M51.498 -29.215 Q47.984 -32.716 47.984 -37.717 Q47.984 -42.719 51.485 -46.232 Q54.986 -49.746 59.987 -49.746 Q64.989 -49.746 68.502 -46.245 Q72.016 -42.744 72.016 -37.742 Q72.016 -32.741 68.515 -29.227 Q65.014 -25.714 60.013 -25.714 Q55.011 -25.714 51.498 -29.215 Z M25.372 -8.934 Q9.842 -19.827 2.81 -37.73 Q9.842 -55.632 25.372 -66.526 Q40.903 -77.42 60 -77.42 Q79.097 -77.42 94.627 -66.526 Q110.157 -55.632 117.19 -37.73 Q110.157 -19.827 94.627 -8.934 Q79.097 1.96 60 1.96 Q40.903 1.96 25.372 -8.934 Z M85.796 -17.702 Q97.537 -25.176 103.787 -37.73 Q97.537 -50.284 85.79 -57.757 Q74.041 -65.23 59.994 -65.23 Q45.946 -65.23 34.204 -57.757 Q22.462 -50.284 16.212 -37.73 Q22.462 -25.176 34.21 -17.702 Q45.959 -10.23 60.006 -10.23 Q74.054 -10.23 85.796 -17.702 Z"/></g><g id="Medium-M" transform="matrix(1 0 0 1 1689.91 1126)"><path d="M75.938 -21.792 Q82.5 -28.355 82.5 -37.73 Q82.5 -47.105 75.938 -53.667 Q69.375 -60.23 60 -60.23 Q50.625 -60.23 44.062 -53.667 Q37.5 -47.105 37.5 -37.73 Q37.5 -28.355 44.062 -21.792 Q50.625 -15.23 60 -15.23 Q69.375 -15.23 75.938 -21.792 Z M50.886 -28.61 Q47.127 -32.364 47.127 -37.725 Q47.127 -43.086 50.88 -46.844 Q54.634 -50.602 59.995 -50.602 Q65.356 -50.602 69.114 -46.85 Q72.873 -43.096 72.873 -37.735 Q72.873 -32.374 69.12 -28.616 Q65.366 -24.857 60.005 -24.857 Q54.644 -24.857 50.886 -28.61 Z M26.168 -9.79 Q10.943 -20.276 4.074 -37.73 Q10.943 -55.184 26.168 -65.67 Q41.391 -76.156 60 -76.156 Q78.609 -76.156 93.832 -65.67 Q109.058 -55.184 115.926 -37.73 Q109.058 -20.276 93.832 -9.79 Q78.609 0.696 60 0.696 Q41.391 0.696 26.168 -9.79 Z M85.877 -17.682 Q97.66 -25.135 103.91 -37.73 Q97.66 -50.325 85.875 -57.777 Q74.09 -65.23 59.998 -65.23 Q45.905 -65.23 34.123 -57.777 Q22.34 -50.325 16.09 -37.73 Q22.34 -25.135 34.125 -17.682 Q45.91 -10.23 60.002 -10.23 Q74.095 -10.23 85.877 -17.682 Z"/></g><g id="Regular-M" transform="matrix(1 0 0 1 1394.06 1126)"><path d="M75.938 -21.792 Q82.5 -28.355 82.5 -37.73 Q82.5 -47.105 75.938 -53.667 Q69.375 -60.23 60 -60.23 Q50.625 -60.23 44.062 -53.667 Q37.5 -47.105 37.5 -37.73 Q37.5 -28.355 44.062 -21.792 Q50.625 -15.23 60 -15.23 Q69.375 -15.23 75.938 -21.792 Z M50.438 -28.167 Q46.5 -32.105 46.5 -37.73 Q46.5 -43.355 50.438 -47.292 Q54.375 -51.23 60 -51.23 Q65.625 -51.23 69.562 -47.292 Q73.5 -43.355 73.5 -37.73 Q73.5 -32.105 69.562 -28.167 Q65.625 -24.23 60 -24.23 Q54.375 -24.23 50.438 -28.167 Z M26.75 -10.417 Q11.75 -20.605 5 -37.73 Q11.75 -54.855 26.75 -65.042 Q41.75 -75.23 60 -75.23 Q78.25 -75.23 93.25 -65.042 Q108.25 -54.855 115 -37.73 Q108.25 -20.605 93.25 -10.417 Q78.25 -0.23 60 -0.23 Q41.75 -0.23 26.75 -10.417 Z M85.938 -17.667 Q97.75 -25.105 104 -37.73 Q97.75 -50.355 85.938 -57.792 Q74.125 -65.23 60 -65.23 Q45.875 -65.23 34.062 -57.792 Q22.25 -50.355 16 -37.73 Q22.25 -25.105 34.062 -17.667 Q45.875 -10.23 60 -10.23 Q74.125 -10.23 85.938 -17.667 Z"/></g><g id="Light-M" transform="matrix(1 0 0 1 1098.18 1126)"><path d="M74.448 -23.294 Q80.385 -29.242 80.385 -37.741 Q80.385 -46.24 74.436 -52.177 Q68.487 -58.115 59.989 -58.115 Q51.49 -58.115 45.553 -52.166 Q39.615 -46.217 39.615 -37.719 Q39.615 -29.22 45.564 -23.282 Q51.513 -17.345 60.011 -17.345 Q68.51 -17.345 74.448 -23.294 Z M50.438 -28.167 Q46.5 -32.105 46.5 -37.73 Q46.5 -43.355 50.438 -47.292 Q54.375 -51.23 60 -51.23 Q65.625 -51.23 69.562 -47.292 Q73.5 -43.355 73.5 -37.73 Q73.5 -32.105 69.562 -28.167 Q65.625 -24.23 60 -24.23 Q54.375 -24.23 50.438 -28.167 Z M28.578 -12.245 Q14.395 -21.759 7.692 -37.73 Q14.395 -53.701 28.57 -63.215 Q42.746 -72.73 59.994 -72.73 Q77.24 -72.73 91.422 -63.215 Q105.605 -53.701 112.308 -37.73 Q105.605 -21.759 91.43 -12.245 Q77.254 -2.73 60.006 -2.73 Q42.76 -2.73 28.578 -12.245 Z M85.938 -17.667 Q97.75 -25.105 104 -37.73 Q97.75 -50.355 85.938 -57.792 Q74.125 -65.23 60 -65.23 Q45.875 -65.23 34.062 -57.792 Q22.25 -50.355 16 -37.73 Q22.25 -25.105 34.062 -17.667 Q45.875 -10.23 60 -10.23 Q74.125 -10.23 85.938 -17.667 Z"/></g><g id="Thin-M" transform="matrix(1 0 0 1 802.565 1126)"><path d="M72.956 -24.796 Q78.269 -30.131 78.269 -37.752 Q78.269 -45.374 72.934 -50.686 Q67.599 -55.999 59.977 -55.999 Q52.356 -55.999 47.044 -50.664 Q41.731 -45.329 41.731 -37.707 Q41.731 -30.086 47.066 -24.774 Q52.401 -19.461 60.023 -19.461 Q67.644 -19.461 72.956 -24.796 Z M50.438 -28.167 Q46.5 -32.105 46.5 -37.73 Q46.5 -43.355 50.438 -47.292 Q54.375 -51.23 60 -51.23 Q65.625 -51.23 69.562 -47.292 Q73.5 -43.355 73.5 -37.73 Q73.5 -32.105 69.562 -28.167 Q65.625 -24.23 60 -24.23 Q54.375 -24.23 50.438 -28.167 Z M30.404 -14.071 Q17.039 -22.912 10.385 -37.73 Q17.039 -52.547 30.39 -61.389 Q43.741 -70.23 59.986 -70.23 Q76.231 -70.23 89.596 -61.389 Q102.961 -52.547 109.615 -37.73 Q102.961 -22.912 89.61 -14.071 Q76.259 -5.23 60.014 -5.23 Q43.769 -5.23 30.404 -14.071 Z M85.938 -17.667 Q97.75 -25.105 104 -37.73 Q97.75 -50.355 85.938 -57.792 Q74.125 -65.23 60 -65.23 Q45.875 -65.23 34.062 -57.792 Q22.25 -50.355 16 -37.73 Q22.25 -25.105 34.062 -17.667 Q45.875 -10.23 60 -10.23 Q74.125 -10.23 85.938 -17.667 Z"/></g><g id="Ultralight-M" transform="matrix(1 0 0 1 506.415 1126)"><path d="M72.062 -25.697 Q77 -30.664 77 -37.76 Q77 -44.855 72.032 -49.792 Q67.066 -54.73 59.97 -54.73 Q52.875 -54.73 47.938 -49.762 Q43 -44.796 43 -37.7 Q43 -30.605 47.968 -25.667 Q52.934 -20.73 60.03 -20.73 Q67.125 -20.73 72.062 -25.697 Z M50.438 -28.167 Q46.5 -32.105 46.5 -37.73 Q46.5 -43.355 50.438 -47.292 Q54.375 -51.23 60 -51.23 Q65.625 -51.23 69.562 -47.292 Q73.5 -43.355 73.5 -37.73 Q73.5 -32.105 69.562 -28.167 Q65.625 -24.23 60 -24.23 Q54.375 -24.23 50.438 -28.167 Z M31.5 -15.167 Q18.625 -23.605 12 -37.73 Q18.625 -51.855 31.483 -60.292 Q44.339 -68.73 59.983 -68.73 Q75.625 -68.73 88.5 -60.292 Q101.375 -51.855 108 -37.73 Q101.375 -23.605 88.517 -15.167 Q75.661 -6.73 60.017 -6.73 Q44.375 -6.73 31.5 -15.167 Z M85.938 -17.667 Q97.75 -25.105 104 -37.73 Q97.75 -50.355 85.938 -57.792 Q74.125 -65.23 60 -65.23 Q45.875 -65.23 34.062 -57.792 Q22.25 -50.355 16 -37.73 Q22.25 -25.105 34.062 -17.667 Q45.875 -10.23 60 -10.23 Q74.125 -10.23 85.938 -17.667 Z"/></g><g id="Bold-S" transform="matrix(1 0 0 1 2294.23 696)"><path d="M59.076 -23.494 Q63.909 -28.326 63.909 -35.23 Q63.909 -42.134 59.076 -46.966 Q54.244 -51.799 47.34 -51.799 Q40.436 -51.799 35.604 -46.966 Q30.771 -42.134 30.771 -35.23 Q30.771 -28.326 35.604 -23.494 Q40.436 -18.661 47.34 -18.661 Q54.244 -18.661 59.076 -23.494 Z M42.113 -29.985 Q39.943 -32.138 39.943 -35.212 Q39.943 -38.287 42.095 -40.457 Q44.248 -42.627 47.322 -42.627 Q50.397 -42.627 52.567 -40.475 Q54.737 -38.322 54.737 -35.248 Q54.737 -32.173 52.585 -30.003 Q50.432 -27.833 47.358 -27.833 Q44.283 -27.833 42.113 -29.985 Z M19.774 -12.497 Q7.496 -21.225 1.677 -35.23 Q7.496 -49.235 19.774 -57.963 Q32.053 -66.691 47.34 -66.691 Q62.627 -66.691 74.906 -57.963 Q87.184 -49.235 93.003 -35.23 Q87.184 -21.225 74.906 -12.497 Q62.627 -3.769 47.34 -3.769 Q32.053 -3.769 19.774 -12.497 Z M67.558 -19.697 Q76.829 -25.466 81.859 -35.23 Q76.829 -44.994 67.549 -50.763 Q58.27 -56.533 47.331 -56.533 Q36.393 -56.533 27.122 -50.763 Q17.851 -44.994 12.821 -35.23 Q17.851 -25.466 27.131 -19.697 Q36.41 -13.927 47.349 -13.927 Q58.287 -13.927 67.558 -19.697 Z"/></g><g id="Semibold-S" transform="matrix(1 0 0 1 1998.1 696)"><path d="M59.076 -23.494 Q63.909 -28.326 63.909 -35.23 Q63.909 -42.134 59.076 -46.966 Q54.244 -51.799 47.34 -51.799 Q40.436 -51.799 35.604 -46.966 Q30.771 -42.134 30.771 -35.23 Q30.771 -28.326 35.604 -23.494 Q40.436 -18.661 47.34 -18.661 Q54.244 -18.661 59.076 -23.494 Z M41.47 -29.35 Q39.043 -31.767 39.043 -35.22 Q39.043 -38.673 41.46 -41.1 Q43.877 -43.527 47.33 -43.527 Q50.783 -43.527 53.21 -41.11 Q55.637 -38.693 55.637 -35.24 Q55.637 -31.787 53.22 -29.36 Q50.803 -26.933 47.35 -26.933 Q43.897 -26.933 41.47 -29.35 Z M20.611 -13.397 Q8.653 -21.697 3.006 -35.23 Q8.653 -48.763 20.611 -57.063 Q32.568 -65.362 47.34 -65.362 Q62.112 -65.362 74.069 -57.063 Q86.027 -48.763 91.674 -35.23 Q86.027 -21.697 74.069 -13.397 Q62.112 -5.098 47.34 -5.098 Q32.568 -5.098 20.611 -13.397 Z M67.644 -19.675 Q76.957 -25.424 81.987 -35.23 Q76.957 -45.036 67.639 -50.785 Q58.32 -56.533 47.335 -56.533 Q36.35 -56.533 27.036 -50.785 Q17.723 -45.036 12.693 -35.23 Q17.723 -25.424 27.041 -19.675 Q36.36 -13.927 47.345 -13.927 Q58.33 -13.927 67.644 -19.675 Z"/></g><g id="Medium-S" transform="matrix(1 0 0 1 1701.85 696)"><path d="M59.076 -23.494 Q63.909 -28.326 63.909 -35.23 Q63.909 -42.134 59.076 -46.966 Q54.244 -51.799 47.34 -51.799 Q40.436 -51.799 35.604 -46.966 Q30.771 -42.134 30.771 -35.23 Q30.771 -28.326 35.604 -23.494 Q40.436 -18.661 47.34 -18.661 Q54.244 -18.661 59.076 -23.494 Z M40.988 -28.873 Q38.367 -31.489 38.367 -35.226 Q38.367 -38.963 40.983 -41.582 Q43.599 -44.203 47.336 -44.203 Q51.073 -44.203 53.692 -41.587 Q56.313 -38.971 56.313 -35.234 Q56.313 -31.497 53.697 -28.878 Q51.081 -26.257 47.344 -26.257 Q43.607 -26.257 40.988 -28.873 Z M21.238 -14.073 Q9.521 -22.051 4.003 -35.23 Q9.521 -48.409 21.238 -56.387 Q32.954 -64.365 47.34 -64.365 Q61.726 -64.365 73.442 -56.387 Q85.159 -48.409 90.677 -35.23 Q85.159 -22.051 73.442 -14.073 Q61.726 -6.095 47.34 -6.095 Q32.954 -6.095 21.238 -14.073 Z M67.708 -19.659 Q77.054 -25.391 82.084 -35.23 Q77.054 -45.069 67.706 -50.801 Q58.358 -56.533 47.338 -56.533 Q36.318 -56.533 26.972 -50.801 Q17.626 -45.069 12.596 -35.23 Q17.626 -25.391 26.974 -19.659 Q36.322 -13.927 47.342 -13.927 Q58.362 -13.927 67.708 -19.659 Z"/></g><g id="Regular-S" transform="matrix(1 0 0 1 1405.73 696)"><path d="M59.076 -23.494 Q63.909 -28.326 63.909 -35.23 Q63.909 -42.134 59.076 -46.966 Q54.244 -51.799 47.34 -51.799 Q40.436 -51.799 35.604 -46.966 Q30.771 -42.134 30.771 -35.23 Q30.771 -28.326 35.604 -23.494 Q40.436 -18.661 47.34 -18.661 Q54.244 -18.661 59.076 -23.494 Z M40.634 -28.523 Q37.872 -31.285 37.872 -35.23 Q37.872 -39.175 40.634 -41.936 Q43.395 -44.698 47.34 -44.698 Q51.285 -44.698 54.047 -41.936 Q56.808 -39.175 56.808 -35.23 Q56.808 -31.285 54.047 -28.523 Q51.285 -25.762 47.34 -25.762 Q43.395 -25.762 40.634 -28.523 Z M21.698 -14.568 Q10.158 -22.31 4.734 -35.23 Q10.158 -48.15 21.698 -55.892 Q33.237 -63.634 47.34 -63.634 Q61.443 -63.634 72.983 -55.892 Q84.522 -48.15 89.946 -35.23 Q84.522 -22.31 72.983 -14.568 Q61.443 -6.826 47.34 -6.826 Q33.237 -6.826 21.698 -14.568 Z M67.755 -19.647 Q77.125 -25.367 82.155 -35.23 Q77.125 -45.092 67.755 -50.813 Q58.386 -56.533 47.34 -56.533 Q36.294 -56.533 26.925 -50.813 Q17.555 -45.092 12.525 -35.23 Q17.555 -25.367 26.925 -19.647 Q36.294 -13.927 47.34 -13.927 Q58.386 -13.927 67.755 -19.647 Z"/></g><g id="Light-S" transform="matrix(1 0 0 1 1109.75 696)"><path d="M57.901 -24.678 Q62.24 -29.026 62.24 -35.239 Q62.24 -41.451 57.892 -45.791 Q53.544 -50.13 47.331 -50.13 Q41.119 -50.13 36.779 -45.782 Q32.44 -41.434 32.44 -35.221 Q32.44 -29.009 36.788 -24.669 Q41.136 -20.33 47.349 -20.33 Q53.561 -20.33 57.901 -24.678 Z M40.634 -28.523 Q37.872 -31.285 37.872 -35.23 Q37.872 -39.175 40.634 -41.936 Q43.395 -44.698 47.34 -44.698 Q51.285 -44.698 54.047 -41.936 Q56.808 -39.175 56.808 -35.23 Q56.808 -31.285 54.047 -28.523 Q51.285 -25.762 47.34 -25.762 Q43.395 -25.762 40.634 -28.523 Z M23.139 -16.01 Q12.245 -23.22 6.858 -35.23 Q12.245 -47.24 23.133 -54.45 Q34.023 -61.661 47.335 -61.661 Q60.646 -61.661 71.541 -54.45 Q82.435 -47.24 87.822 -35.23 Q82.435 -23.22 71.547 -16.01 Q60.657 -8.798 47.345 -8.798 Q34.034 -8.798 23.139 -16.01 Z M67.755 -19.647 Q77.125 -25.367 82.155 -35.23 Q77.125 -45.092 67.755 -50.813 Q58.386 -56.533 47.34 -56.533 Q36.294 -56.533 26.925 -50.813 Q17.555 -45.092 12.525 -35.23 Q17.555 -25.367 26.925 -19.647 Q36.294 -13.927 47.34 -13.927 Q58.386 -13.927 67.755 -19.647 Z"/></g><g id="Thin-S" transform="matrix(1 0 0 1 814.015 696)"><path d="M56.724 -25.864 Q60.571 -29.728 60.571 -35.248 Q60.571 -40.768 56.706 -44.614 Q52.842 -48.461 47.322 -48.461 Q41.802 -48.461 37.956 -44.596 Q34.109 -40.732 34.109 -35.212 Q34.109 -29.692 37.974 -25.846 Q41.838 -21.999 47.358 -21.999 Q52.878 -21.999 56.724 -25.864 Z M40.634 -28.523 Q37.872 -31.285 37.872 -35.23 Q37.872 -39.175 40.634 -41.936 Q43.395 -44.698 47.34 -44.698 Q51.285 -44.698 54.047 -41.936 Q56.808 -39.175 56.808 -35.23 Q56.808 -31.285 54.047 -28.523 Q51.285 -25.762 47.34 -25.762 Q43.395 -25.762 40.634 -28.523 Z M24.58 -17.451 Q14.331 -24.131 8.983 -35.23 Q14.331 -46.329 24.569 -53.009 Q34.808 -59.689 47.329 -59.689 Q59.851 -59.689 70.1 -53.009 Q80.349 -46.329 85.697 -35.23 Q80.349 -24.131 70.111 -17.451 Q59.872 -10.771 47.351 -10.771 Q34.829 -10.771 24.58 -17.451 Z M67.755 -19.647 Q77.125 -25.367 82.155 -35.23 Q77.125 -45.092 67.755 -50.813 Q58.386 -56.533 47.34 -56.533 Q36.294 -56.533 26.925 -50.813 Q17.555 -45.092 12.525 -35.23 Q17.555 -25.367 26.925 -19.647 Q36.294 -13.927 47.34 -13.927 Q58.386 -13.927 67.755 -19.647 Z"/></g><g id="Ultralight-S" transform="matrix(1 0 0 1 517.792 696)"><path d="M56.019 -26.575 Q59.57 -30.148 59.57 -35.254 Q59.57 -40.358 55.995 -43.909 Q52.422 -47.459 47.316 -47.459 Q42.212 -47.459 38.661 -43.885 Q35.111 -40.312 35.111 -35.206 Q35.111 -30.101 38.685 -26.551 Q42.258 -23 47.364 -23 Q52.468 -23 56.019 -26.575 Z M40.634 -28.523 Q37.872 -31.285 37.872 -35.23 Q37.872 -39.175 40.634 -41.936 Q43.395 -44.698 47.34 -44.698 Q51.285 -44.698 54.047 -41.936 Q56.808 -39.175 56.808 -35.23 Q56.808 -31.285 54.047 -28.523 Q51.285 -25.762 47.34 -25.762 Q43.395 -25.762 40.634 -28.523 Z M25.445 -18.316 Q15.583 -24.677 10.257 -35.23 Q15.583 -45.783 25.431 -52.144 Q35.279 -58.505 47.326 -58.505 Q59.372 -58.505 69.235 -52.144 Q79.097 -45.783 84.423 -35.23 Q79.097 -24.677 69.249 -18.316 Q59.401 -11.954 47.354 -11.954 Q35.308 -11.954 25.445 -18.316 Z M67.755 -19.647 Q77.125 -25.367 82.155 -35.23 Q77.125 -45.092 67.755 -50.813 Q58.386 -56.533 47.34 -56.533 Q36.294 -56.533 26.925 -50.813 Q17.555 -45.092 12.525 -35.23 Q17.555 -25.367 26.925 -19.647 Q36.294 -13.927 47.34 -13.927 Q58.386 -13.927 67.755 -19.647 Z"/></g></g></svg>